<svg xmlns="http://www.w3.org/2000/svg" xmlns:xlink="http://www.w3.org/1999/xlink" viewBox="0 0 64 64"><defs><style>.cls-1{fill:url(#linear-gradient);}.cls-2{fill:url(#linear-gradient-2);}.cls-3{fill:url(#linear-gradient-3);}.cls-4{fill:url(#linear-gradient-4);}.cls-5{fill:url(#linear-gradient-5);}.cls-6{fill:url(#linear-gradient-6);}.cls-7{fill:url(#linear-gradient-7);}.cls-8{fill:url(#linear-gradient-8);}.cls-9{fill:url(#linear-gradient-9);}</style><linearGradient id="linear-gradient" x1="17.71" y1="31.95" x2="46.29" y2="31.95" gradientUnits="userSpaceOnUse"><stop offset="0" stop-color="#9f2fff"/><stop offset="1" stop-color="#0bb1d3"/></linearGradient><linearGradient id="linear-gradient-2" x1="31" y1="12.67" x2="33" y2="12.67" xlink:href="#linear-gradient"/><linearGradient id="linear-gradient-3" x1="42.89" y1="18.33" x2="48.46" y2="18.33" xlink:href="#linear-gradient"/><linearGradient id="linear-gradient-4" x1="47.83" y1="32" x2="54.82" y2="32" xlink:href="#linear-gradient"/><linearGradient id="linear-gradient-5" x1="42.88" y1="45.67" x2="48.46" y2="45.67" xlink:href="#linear-gradient"/><linearGradient id="linear-gradient-6" x1="31" y1="51.33" x2="33" y2="51.33" xlink:href="#linear-gradient"/><linearGradient id="linear-gradient-7" x1="15.54" y1="45.67" x2="21.12" y2="45.67" xlink:href="#linear-gradient"/><linearGradient id="linear-gradient-8" x1="9.15" y1="32" x2="16.19" y2="32" xlink:href="#linear-gradient"/><linearGradient id="linear-gradient-9" x1="15.54" y1="18.33" x2="21.12" y2="18.33" xlink:href="#linear-gradient"/></defs><g id="_1.sun" data-name="1.sun"><path class="cls-1" d="M32,17.71A14.29,14.29,0,0,0,17.71,32c.66,18.91,27.92,18.91,28.58,0A14.29,14.29,0,0,0,32,17.71ZM32,44A12,12,0,0,1,20,32c.55-15.89,23.45-15.88,24,0A12,12,0,0,1,32,44Z"/><path class="cls-2" d="M32,16.19a1,1,0,0,0,1-1v-5a1,1,0,1,0-2,0v5A1,1,0,0,0,32,16.19Z"/><path class="cls-3" d="M43.88,21.12a1,1,0,0,0,.71-.3l3.57-3.56c.93-.9-.51-2.35-1.42-1.42l-3.56,3.57A1,1,0,0,0,43.88,21.12Z"/><path class="cls-4" d="M53.85,31h-5a1,1,0,0,0,0,2h5A1,1,0,0,0,53.85,31Z"/><path class="cls-5" d="M44.59,43.18c-.9-.93-2.35.51-1.41,1.41l3.56,3.57c.9.93,2.35-.51,1.42-1.42Z"/><path class="cls-6" d="M32,47.81a1,1,0,0,0-1,1v5a1,1,0,0,0,2,0v-5A1,1,0,0,0,32,47.81Z"/><path class="cls-7" d="M19.41,43.18l-3.57,3.56c-.93.9.51,2.35,1.42,1.42l3.56-3.57C21.75,43.69,20.31,42.24,19.41,43.18Z"/><path class="cls-8" d="M16.19,32a1,1,0,0,0-1-1h-5a1,1,0,1,0,0,2h5A1,1,0,0,0,16.19,32Z"/><path class="cls-9" d="M19.41,20.82c.9.93,2.34-.51,1.41-1.41l-3.56-3.57c-.9-.93-2.35.51-1.42,1.42Z"/></g></svg>