<svg xmlns="http://www.w3.org/2000/svg" xmlns:xlink="http://www.w3.org/1999/xlink" viewBox="0 0 64 64"><defs><style>.cls-1{fill:url(#linear-gradient);}.cls-2{fill:url(#linear-gradient-2);}.cls-3{fill:url(#linear-gradient-3);}.cls-4{fill:url(#linear-gradient-4);}.cls-5{fill:url(#linear-gradient-5);}</style><linearGradient id="linear-gradient" x1="15.52" y1="32" x2="48.4" y2="32" gradientUnits="userSpaceOnUse"><stop offset="0" stop-color="#9f2fff"/><stop offset="1" stop-color="#0bb1d3"/></linearGradient><linearGradient id="linear-gradient-2" x1="7.85" y1="17.44" x2="26.51" y2="17.44" xlink:href="#linear-gradient"/><linearGradient id="linear-gradient-3" x1="7.82" y1="46.01" x2="26.49" y2="46.01" xlink:href="#linear-gradient"/><linearGradient id="linear-gradient-4" x1="37.51" y1="17.44" x2="56.18" y2="17.44" xlink:href="#linear-gradient"/><linearGradient id="linear-gradient-5" x1="37.38" y1="46.56" x2="56.04" y2="46.56" xlink:href="#linear-gradient"/></defs><g id="_31.star" data-name="31.star"><path class="cls-1" d="M48.4,32a1,1,0,0,0-1-1A14.46,14.46,0,0,1,33,16.55a1,1,0,0,0-2,0A14.47,14.47,0,0,1,16.49,31a1,1,0,0,0,0,2A14.47,14.47,0,0,1,31,47.45a1,1,0,0,0,2,0A14.46,14.46,0,0,1,47.4,33,1,1,0,0,0,48.4,32ZM32,41.86A16.52,16.52,0,0,0,22.09,32,16.52,16.52,0,0,0,32,22.14,16.49,16.49,0,0,0,41.81,32,16.49,16.49,0,0,0,32,41.86Z"/><path class="cls-2" d="M8.82,18.44a7.36,7.36,0,0,1,7.35,7.35,1,1,0,0,0,2,0,7.35,7.35,0,0,1,7.34-7.35,1,1,0,0,0,0-2A7.34,7.34,0,0,1,18.17,9.1a1,1,0,0,0-2,0,7.35,7.35,0,0,1-7.35,7.34A1,1,0,0,0,8.82,18.44Zm8.35-5.16a9.35,9.35,0,0,0,4.16,4.16,9.42,9.42,0,0,0-4.16,4.17A9.47,9.47,0,0,0,13,17.44,9.4,9.4,0,0,0,17.17,13.28Z"/><path class="cls-3" d="M25.51,45a7.35,7.35,0,0,1-7.34-7.35,1,1,0,0,0-2,0A7.36,7.36,0,0,1,8.82,45a1,1,0,0,0,0,2,7.35,7.35,0,0,1,7.35,7.34,1,1,0,0,0,2,0A7.34,7.34,0,0,1,25.51,47,1,1,0,0,0,25.51,45Zm-8.34,5.16A9.4,9.4,0,0,0,13,46a9.47,9.47,0,0,0,4.16-4.17A9.42,9.42,0,0,0,21.33,46,9.35,9.35,0,0,0,17.17,50.17Z"/><path class="cls-4" d="M38.49,18.44a7.35,7.35,0,0,1,7.34,7.35,1,1,0,0,0,2,0,7.36,7.36,0,0,1,7.35-7.35,1,1,0,0,0,0-2A7.35,7.35,0,0,1,47.83,9.1a1,1,0,0,0-2,0,7.34,7.34,0,0,1-7.34,7.34A1,1,0,0,0,38.49,18.44Zm8.34-5.16A9.4,9.4,0,0,0,51,17.44a9.47,9.47,0,0,0-4.16,4.17,9.42,9.42,0,0,0-4.16-4.17A9.35,9.35,0,0,0,46.83,13.28Z"/><path class="cls-5" d="M55.07,45.56a7.35,7.35,0,0,1-7.34-7.35,1,1,0,0,0-2,0,7.36,7.36,0,0,1-7.35,7.35,1,1,0,1,0,0,2,7.35,7.35,0,0,1,7.35,7.34,1,1,0,0,0,2,0,7.34,7.34,0,0,1,7.34-7.34A1,1,0,0,0,55.07,45.56Zm-8.34,5.16a9.37,9.37,0,0,0-4.17-4.16,9.45,9.45,0,0,0,4.17-4.17,9.37,9.37,0,0,0,4.16,4.17A9.3,9.3,0,0,0,46.73,50.72Z"/></g></svg>