<svg xmlns="http://www.w3.org/2000/svg" xmlns:xlink="http://www.w3.org/1999/xlink" viewBox="0 0 64 64"><defs><style>.cls-1{fill:url(#linear-gradient);}.cls-2{fill:url(#linear-gradient-2);}.cls-3{fill:url(#linear-gradient-3);}.cls-4{fill:url(#linear-gradient-4);}.cls-5{fill:url(#linear-gradient-5);}.cls-6{fill:url(#linear-gradient-6);}.cls-7{fill:url(#linear-gradient-7);}.cls-8{fill:url(#linear-gradient-8);}.cls-9{fill:url(#linear-gradient-9);}.cls-10{fill:url(#linear-gradient-10);}.cls-11{fill:url(#linear-gradient-11);}</style><linearGradient id="linear-gradient" x1="23.78" y1="27.53" x2="33.01" y2="27.53" gradientUnits="userSpaceOnUse"><stop offset="0" stop-color="#9f2fff"/><stop offset="1" stop-color="#0bb1d3"/></linearGradient><linearGradient id="linear-gradient-2" x1="20.63" y1="30.2" x2="23.12" y2="30.2" xlink:href="#linear-gradient"/><linearGradient id="linear-gradient-3" x1="8.4" y1="36.55" x2="18.52" y2="36.55" xlink:href="#linear-gradient"/><linearGradient id="linear-gradient-4" x1="6.75" y1="41.52" x2="8.91" y2="41.52" xlink:href="#linear-gradient"/><linearGradient id="linear-gradient-5" x1="3.99" y1="35.48" x2="54.6" y2="35.48" xlink:href="#linear-gradient"/><linearGradient id="linear-gradient-6" x1="40.31" y1="22.48" x2="45.97" y2="22.48" xlink:href="#linear-gradient"/><linearGradient id="linear-gradient-7" x1="36.47" y1="22.63" x2="39.46" y2="22.63" xlink:href="#linear-gradient"/><linearGradient id="linear-gradient-8" x1="39.99" y1="13.82" x2="41.99" y2="13.82" xlink:href="#linear-gradient"/><linearGradient id="linear-gradient-9" x1="50.29" y1="18.26" x2="55.08" y2="18.26" xlink:href="#linear-gradient"/><linearGradient id="linear-gradient-10" x1="54.17" y1="29.95" x2="60.07" y2="29.95" xlink:href="#linear-gradient"/><linearGradient id="linear-gradient-11" x1="26.91" y1="18.26" x2="31.71" y2="18.26" xlink:href="#linear-gradient"/></defs><g id="_2.sun" data-name="2.sun"><path class="cls-1" d="M32.3,26.4c-1.52-.75-9.3-.54-8.45,2.09a1,1,0,0,0,1.34.44,9.15,9.15,0,0,1,6.56-.61A1,1,0,0,0,32.3,26.4Z"/><path class="cls-2" d="M21.4,29.24c-.58.49-1.16,1.36-.42,2a1,1,0,0,0,1.41-.11c.12-.14.24-.27.43-.46A1,1,0,0,0,21.4,29.24Z"/><path class="cls-3" d="M17.93,35a7.93,7.93,0,0,0-9.29,2.11,1,1,0,1,0,1.52,1.29,5.92,5.92,0,0,1,4.52-2.09c1.23-.28,3,1.4,3.76,0A1,1,0,0,0,17.93,35Z"/><path class="cls-4" d="M8.12,39.8c-1.37-.22-1.34,1.52-1.37,2.46a1,1,0,0,0,1,1c1.25,0,.93-1.44,1.14-2.27A1,1,0,0,0,8.12,39.8Z"/><path class="cls-5" d="M53.19,30C53.2,18,37.6,13.25,30.94,23.1a14.63,14.63,0,0,0-15,8.34c-15.15-1-16.37,21-1.17,21.71H43.72C52.9,53.28,58,42,52,35.19A12,12,0,0,0,53.19,30ZM41,19.76a10.24,10.24,0,0,1,9.47,14,10.69,10.69,0,0,0-7.91-2.27,14.6,14.6,0,0,0-9.45-7.94A10.25,10.25,0,0,1,41,19.76Zm2.73,31.39H14.8a8.9,8.9,0,0,1-8.89-8.89C6,32.61,19.25,30,23,38.84a1,1,0,1,0,1.84-.77A11,11,0,0,0,18,31.85c4.42-9.06,18.09-9,22.52,0a11,11,0,0,0-6.86,6.22,1,1,0,0,0,1.85.77c3.76-8.87,17.05-6.23,17.1,3.42A8.9,8.9,0,0,1,43.72,51.15Z"/><path class="cls-6" d="M41.22,22.81A6,6,0,0,1,44.41,24a1,1,0,0,0,1.4-.21c1-1.91-3.16-2.84-4.47-2.94A1,1,0,0,0,41.22,22.81Z"/><path class="cls-7" d="M38.06,21.46c-.79.34-2.05,1-1.41,2s1.52.17,2.23-.18A1,1,0,0,0,38.06,21.46Z"/><path class="cls-8" d="M41,16.8a1,1,0,0,0,1-1v-4a1,1,0,0,0-2,0v4A1,1,0,0,0,41,16.8Z"/><path class="cls-9" d="M51.29,20.66c.56.21,3.06-2.79,3.5-3.09a1,1,0,0,0-1.42-1.42L50.58,19A1,1,0,0,0,51.29,20.66Z"/><path class="cls-10" d="M59.09,29h-4a1,1,0,0,0,0,2h4A1,1,0,0,0,59.09,29Z"/><path class="cls-11" d="M30,20.36c.9.93,2.35-.51,1.42-1.41l-2.8-2.8a1,1,0,0,0-1.41,0,1,1,0,0,0,0,1.42Z"/></g></svg>