<svg xmlns="http://www.w3.org/2000/svg" xmlns:xlink="http://www.w3.org/1999/xlink" viewBox="0 0 64 64"><defs><style>.cls-1{fill:url(#linear-gradient);}.cls-2{fill:url(#linear-gradient-2);}.cls-3{fill:url(#linear-gradient-3);}.cls-4{fill:url(#linear-gradient-4);}.cls-5{fill:url(#linear-gradient-5);}</style><linearGradient id="linear-gradient" x1="25.27" y1="24.45" x2="35.01" y2="24.45" gradientUnits="userSpaceOnUse"><stop offset="0" stop-color="#9f2fff"/><stop offset="1" stop-color="#0bb1d3"/></linearGradient><linearGradient id="linear-gradient-2" x1="21.92" y1="27.31" x2="24.42" y2="27.31" xlink:href="#linear-gradient"/><linearGradient id="linear-gradient-3" x1="8.8" y1="34.11" x2="19.49" y2="34.11" xlink:href="#linear-gradient"/><linearGradient id="linear-gradient-4" x1="7.04" y1="39.43" x2="9.21" y2="39.43" xlink:href="#linear-gradient"/><linearGradient id="linear-gradient-5" x1="4.08" y1="32" x2="60.01" y2="32" xlink:href="#linear-gradient"/></defs><g id="_37.moon" data-name="37.moon"><path class="cls-1" d="M34.31,23.3c-1.54-.8-9.87-.53-9,2.14a1,1,0,0,0,.9.55,11,11,0,0,1,7.52-.76A1,1,0,0,0,34.31,23.3Z"/><path class="cls-2" d="M22.71,26.33c-.92.67-1.26,2.09.19,2.27.58,0,.81-.45,1.21-.85C25.05,26.86,23.62,25.4,22.71,26.33Z"/><path class="cls-3" d="M18.91,32.54A8.42,8.42,0,0,0,9,34.78a1,1,0,0,0,.11,1.4,1,1,0,0,0,1.41-.11,6.45,6.45,0,0,1,7.53-1.71A1,1,0,0,0,18.91,32.54Z"/><path class="cls-4" d="M8.42,37.66C7,37.44,7.08,39.26,7,40.22a1,1,0,0,0,1,1c1.29,0,.91-1.52,1.15-2.37A1,1,0,0,0,8.42,37.66Z"/><path class="cls-5" d="M59.94,26.59a1,1,0,0,0-1.1-1.35c-6.39,1.28-12.06-5.71-9.55-11.69a1,1,0,0,0-1.1-1.35A10.67,10.67,0,0,0,39.27,22c-7.59-4.92-18.79-1.62-22.38,6.73C.72,27.58-.61,51.09,15.58,51.82h31C56.65,52,62,39.3,54.92,32.2A10.62,10.62,0,0,0,59.94,26.59ZM56.15,40.22a9.62,9.62,0,0,1-9.6,9.6h-31A9.61,9.61,0,0,1,6,40.22C6.05,29.81,20.38,27,24.44,36.53a1,1,0,0,0,1.85-.77,11.65,11.65,0,0,0-7.39-6.63c4.75-9.86,19.58-9.86,24.33,0a11.66,11.66,0,0,0-7.38,6.63,1,1,0,0,0,1.85.77,9.6,9.6,0,0,1,18.45,3.69Zm-2.88-9.44a11.47,11.47,0,0,0-8-2.06,15.62,15.62,0,0,0-4-5.27,8.64,8.64,0,0,1,5.62-8.86c-1.39,6.35,3.91,12.89,10.42,12.77A8.6,8.6,0,0,1,53.27,30.78Z"/></g></svg>