<svg xmlns="http://www.w3.org/2000/svg" xmlns:xlink="http://www.w3.org/1999/xlink" viewBox="0 0 64 64"><defs><style>.cls-1{fill:url(#linear-gradient);}.cls-2{fill:url(#linear-gradient-2);}.cls-3{fill:url(#linear-gradient-3);}.cls-4{fill:url(#linear-gradient-4);}.cls-5{fill:url(#linear-gradient-5);}</style><linearGradient id="linear-gradient" x1="26.06" y1="20.35" x2="36.04" y2="20.35" gradientUnits="userSpaceOnUse"><stop offset="0" stop-color="#9f2fff"/><stop offset="1" stop-color="#0bb1d3"/></linearGradient><linearGradient id="linear-gradient-2" x1="22.58" y1="23.31" x2="25.11" y2="23.31" xlink:href="#linear-gradient"/><linearGradient id="linear-gradient-3" x1="9.07" y1="30.32" x2="20.03" y2="30.32" xlink:href="#linear-gradient"/><linearGradient id="linear-gradient-4" x1="7.25" y1="35.81" x2="9.42" y2="35.81" xlink:href="#linear-gradient"/><linearGradient id="linear-gradient-5" x1="4.19" y1="32.03" x2="59.79" y2="32.03" xlink:href="#linear-gradient"/></defs><g id="_43.cloud" data-name="43.cloud"><path class="cls-1" d="M35.33,19.2c-1.59-.83-10.1-.55-9.21,2.16a1,1,0,0,0,1.34.45,10.17,10.17,0,0,1,7.33-.68A1,1,0,0,0,35.33,19.2Z"/><path class="cls-2" d="M23.4,22.32c-.59.51-1.24,1.38-.48,2a1,1,0,0,0,1.41-.11l.48-.52C25.74,22.83,24.3,21.39,23.4,22.32Z"/><path class="cls-3" d="M19.45,28.72A8.7,8.7,0,0,0,9.3,31a1,1,0,0,0,1.53,1.29,6.69,6.69,0,0,1,7.8-1.77A1,1,0,0,0,19.45,28.72Z"/><path class="cls-4" d="M8.64,34c-1.43-.22-1.34,1.64-1.39,2.61a1,1,0,0,0,1,1c1.31,0,.9-1.56,1.15-2.42A1,1,0,0,0,8.64,34Z"/><path class="cls-5" d="M46.61,24.8c-5.51-12.37-23.7-12.37-29.22,0C.76,23.58-.65,47.8,16,48.55H48C64.55,47.89,63.33,23.57,46.61,24.8ZM48,46.55H16A9.94,9.94,0,0,1,6.1,36.62C6.17,25.85,21,22.9,25.19,32.8A1,1,0,0,0,27,32a12,12,0,0,0-7.63-6.84C24.3,15,39.71,15,44.6,25.2A12,12,0,0,0,37,32a1,1,0,0,0,1.85.76A10,10,0,0,1,48,26.7C61.08,27.11,61.09,46.13,48,46.55Z"/></g></svg>