<svg xmlns="http://www.w3.org/2000/svg" xmlns:xlink="http://www.w3.org/1999/xlink" viewBox="0 0 64 64"><defs><style>.cls-1{fill:url(#linear-gradient);}.cls-2{fill:url(#linear-gradient-2);}.cls-3{fill:url(#linear-gradient-3);}.cls-4{fill:url(#linear-gradient-4);}.cls-5{fill:url(#linear-gradient-5);}.cls-6{fill:url(#linear-gradient-6);}.cls-7{fill:url(#linear-gradient-7);}.cls-8{fill:url(#linear-gradient-8);}</style><linearGradient id="linear-gradient" x1="23.43" y1="27.62" x2="32.49" y2="27.62" gradientUnits="userSpaceOnUse"><stop offset="0" stop-color="#9f2fff"/><stop offset="1" stop-color="#0bb1d3"/></linearGradient><linearGradient id="linear-gradient-2" x1="8.38" y1="36.45" x2="18.32" y2="36.45" xlink:href="#linear-gradient"/><linearGradient id="linear-gradient-3" x1="6.77" y1="41.31" x2="8.92" y2="41.31" xlink:href="#linear-gradient"/><linearGradient id="linear-gradient-4" x1="4.05" y1="32.03" x2="60.02" y2="32.03" xlink:href="#linear-gradient"/><linearGradient id="linear-gradient-5" x1="33.01" y1="16.35" x2="41.03" y2="16.35" xlink:href="#linear-gradient"/><linearGradient id="linear-gradient-6" x1="27.99" y1="17.55" x2="31.02" y2="17.55" xlink:href="#linear-gradient"/><linearGradient id="linear-gradient-7" x1="53.71" y1="29.5" x2="56.08" y2="29.5" xlink:href="#linear-gradient"/><linearGradient id="linear-gradient-8" x1="51" y1="24.62" x2="53.9" y2="24.62" xlink:href="#linear-gradient"/></defs><g id="_38.cloud" data-name="38.cloud"><path class="cls-1" d="M31.78,26.49c-1.51-.73-9.15-.52-8.29,2.08a1,1,0,0,0,.9.55,10,10,0,0,1,6.85-.7A1,1,0,0,0,31.78,26.49Z"/><path class="cls-2" d="M17.73,34.93A7.78,7.78,0,0,0,8.61,37a1,1,0,1,0,1.53,1.29,5.77,5.77,0,0,1,4.41-2c1.21-.28,2.91,1.39,3.69,0A1,1,0,0,0,17.73,34.93Z"/><path class="cls-3" d="M8.13,39.61C6.78,39.38,6.79,41.09,6.77,42a1,1,0,0,0,1,1C9,43,8.7,41.62,8.9,40.8A1,1,0,0,0,8.13,39.61Z"/><path class="cls-4" d="M60,30.15A10.69,10.69,0,0,0,48.2,19.55c-5-10.93-21.06-10.93-26,0a10.68,10.68,0,0,0-11.6,12.61C-.1,36.58,3.05,52.65,14.66,52.71H42.94A10.69,10.69,0,0,0,53.41,40,10.62,10.62,0,0,0,60,30.15ZM42.94,50.71H14.65A8.69,8.69,0,0,1,6,42c-.05-9.37,13.11-12,16.68-3.34a1,1,0,0,0,1.31.54,1,1,0,0,0,.54-1.3,10.71,10.71,0,0,0-6.69-6.09c4.34-8.82,17.63-8.82,22,0a10.74,10.74,0,0,0-6.7,6.08,1,1,0,1,0,1.84.77,8.76,8.76,0,0,1,8-5.34C54.42,33.72,54.41,50.34,42.94,50.71Zm9.92-12.63a10.71,10.71,0,0,0-11-6.66c-5-10.94-21.07-10.93-26,0a10.64,10.64,0,0,0-3.28.14c-1.4-7,6.74-12.63,12.81-9a1,1,0,0,0,1.37-.38c.65-1.46-1.52-1.86-2.48-2.25,4.33-8.82,17.64-8.82,22,0-1,.39-3.13.79-2.48,2.25a1,1,0,0,0,1.36.38,8.87,8.87,0,0,1,4.28-1.12C58.61,21.44,61.33,34.41,52.86,38.08Z"/><path class="cls-5" d="M40.52,16.12c-1.22-.83-7.5-2.67-7.51-.19a1,1,0,0,0,1.11.88,9,9,0,0,1,5.43,1.06A1,1,0,0,0,40.52,16.12Z"/><path class="cls-6" d="M29.48,16.35c-.74.45-2,1.18-1.26,2.17a1,1,0,0,0,1.4.17c.65-.5,1.82-1,1.23-2A1,1,0,0,0,29.48,16.35Z"/><path class="cls-7" d="M55.67,27.7a1,1,0,0,0-1.91.59c.65,1.13-.46,3.4,1.1,3.7C56.78,32,55.93,28.89,55.67,27.7Z"/><path class="cls-8" d="M53.6,24.29c-.61-.61-1.68-1.62-2.42-.63a1,1,0,0,0,.24,1.4c.5.29.85,1,1.48.94A1,1,0,0,0,53.6,24.29Z"/></g></svg>