<svg xmlns="http://www.w3.org/2000/svg" xmlns:xlink="http://www.w3.org/1999/xlink" viewBox="0 0 64 64"><defs><style>.cls-1{fill:url(#linear-gradient);}.cls-2{fill:url(#linear-gradient-2);}.cls-3{fill:url(#linear-gradient-3);}.cls-4{fill:url(#linear-gradient-4);}.cls-5{fill:url(#linear-gradient-5);}.cls-6{fill:url(#linear-gradient-6);}.cls-7{fill:url(#linear-gradient-7);}.cls-8{fill:url(#linear-gradient-8);}.cls-9{fill:url(#linear-gradient-9);}.cls-10{fill:url(#linear-gradient-10);}.cls-11{fill:url(#linear-gradient-11);}</style><linearGradient id="linear-gradient" x1="26.23" y1="10.51" x2="35.93" y2="10.51" gradientUnits="userSpaceOnUse"><stop offset="0" stop-color="#9f2fff"/><stop offset="1" stop-color="#0bb1d3"/></linearGradient><linearGradient id="linear-gradient-2" x1="22.89" y1="13.36" x2="25.39" y2="13.36" xlink:href="#linear-gradient"/><linearGradient id="linear-gradient-3" x1="9.84" y1="20.12" x2="20.5" y2="20.12" xlink:href="#linear-gradient"/><linearGradient id="linear-gradient-4" x1="8.09" y1="25.42" x2="10.26" y2="25.42" xlink:href="#linear-gradient"/><linearGradient id="linear-gradient-5" x1="5.14" y1="21.78" x2="58.86" y2="21.78" xlink:href="#linear-gradient"/><linearGradient id="linear-gradient-6" x1="12.56" y1="50.13" x2="20.5" y2="50.13" xlink:href="#linear-gradient"/><linearGradient id="linear-gradient-7" x1="18.5" y1="48.43" x2="26.44" y2="48.43" xlink:href="#linear-gradient"/><linearGradient id="linear-gradient-8" x1="23.56" y1="50.13" x2="31.5" y2="50.13" xlink:href="#linear-gradient"/><linearGradient id="linear-gradient-9" x1="29.5" y1="48.43" x2="37.44" y2="48.43" xlink:href="#linear-gradient"/><linearGradient id="linear-gradient-10" x1="33.56" y1="50.13" x2="41.5" y2="50.13" xlink:href="#linear-gradient"/><linearGradient id="linear-gradient-11" x1="39.5" y1="48.43" x2="47.44" y2="48.43" xlink:href="#linear-gradient"/></defs><g id="_45.cloud" data-name="45.cloud"><path class="cls-1" d="M35.23,9.36c-1.58-.79-9.8-.55-8.93,2.14a1,1,0,0,0,.89.55,10.91,10.91,0,0,1,7.49-.76A1,1,0,0,0,35.23,9.36Z"/><path class="cls-2" d="M23.68,12.38c-.92.67-1.24,2.09.19,2.26.55,0,.87-.5,1.22-.85C26,12.89,24.58,11.45,23.68,12.38Z"/><path class="cls-3" d="M19.91,18.55a8.41,8.41,0,0,0-9.83,2.23,1,1,0,0,0,.11,1.41,1,1,0,0,0,1.41-.12,6.39,6.39,0,0,1,4.87-2.25,6.46,6.46,0,0,1,2.62.56,1,1,0,0,0,.82-1.83Z"/><path class="cls-4" d="M9.47,23.65c-1.41-.22-1.34,1.59-1.38,2.55a1,1,0,0,0,1,1c1.28,0,.91-1.51,1.14-2.36A1,1,0,0,0,9.47,23.65Z"/><path class="cls-5" d="M47.41,14.66a11.52,11.52,0,0,0-1.3.09c-5.34-11.92-22.88-11.92-28.22,0C1.8,13.62.47,37,16.59,37.74H47.41C62.67,37.2,62.68,15.2,47.41,14.66Zm0,21.08H16.59A9.55,9.55,0,0,1,7.05,26.2C7.12,15.85,21.37,13,25.4,22.53a1,1,0,0,0,1.31.54,1,1,0,0,0,.54-1.3,11.63,11.63,0,0,0-7.35-6.61c4.72-9.8,19.48-9.8,24.2,0a11.63,11.63,0,0,0-7.35,6.61,1,1,0,0,0,.54,1.3,1,1,0,0,0,1.31-.54C42.63,13,56.89,15.85,57,26.2A9.55,9.55,0,0,1,47.41,35.74Z"/><path class="cls-6" d="M19.88,42.09a1,1,0,0,0-1.3.54L12.64,56.87a1,1,0,0,0,1.85.77l5.93-14.25A1,1,0,0,0,19.88,42.09Z"/><path class="cls-7" d="M25.82,40.38a1,1,0,0,0-1.31.54L18.58,55.17a1,1,0,0,0,.54,1.3,1,1,0,0,0,1.3-.53l5.94-14.25A1,1,0,0,0,25.82,40.38Z"/><path class="cls-8" d="M30.88,42.09a1,1,0,0,0-1.3.54L23.64,56.87a1,1,0,0,0,1.85.77l5.93-14.25A1,1,0,0,0,30.88,42.09Z"/><path class="cls-9" d="M36.82,40.38a1,1,0,0,0-1.31.54L29.58,55.17a1,1,0,0,0,.54,1.3,1,1,0,0,0,1.3-.53l5.94-14.25A1,1,0,0,0,36.82,40.38Z"/><path class="cls-10" d="M40.88,42.09a1,1,0,0,0-1.3.54L33.64,56.87a1,1,0,0,0,1.85.77l5.93-14.25A1,1,0,0,0,40.88,42.09Z"/><path class="cls-11" d="M46.82,40.38a1,1,0,0,0-1.31.54L39.58,55.17a1,1,0,0,0,.54,1.3,1,1,0,0,0,1.3-.53l5.94-14.25A1,1,0,0,0,46.82,40.38Z"/></g></svg>