<svg xmlns="http://www.w3.org/2000/svg" xmlns:xlink="http://www.w3.org/1999/xlink" viewBox="0 0 64 64"><defs><style>.cls-1{fill:url(#linear-gradient);}.cls-2{fill:url(#linear-gradient-2);}.cls-3{fill:url(#linear-gradient-3);}.cls-4{fill:url(#linear-gradient-4);}.cls-5{fill:url(#linear-gradient-5);}.cls-6{fill:url(#linear-gradient-6);}.cls-7{fill:url(#linear-gradient-7);}.cls-8{fill:url(#linear-gradient-8);}.cls-9{fill:url(#linear-gradient-9);}.cls-10{fill:url(#linear-gradient-10);}.cls-11{fill:url(#linear-gradient-11);}.cls-12{fill:url(#linear-gradient-12);}.cls-13{fill:url(#linear-gradient-13);}.cls-14{fill:url(#linear-gradient-14);}.cls-15{fill:url(#linear-gradient-15);}.cls-16{fill:url(#linear-gradient-16);}</style><linearGradient id="linear-gradient" x1="23.75" y1="18.04" x2="33.03" y2="18.04" gradientUnits="userSpaceOnUse"><stop offset="0" stop-color="#9f2fff"/><stop offset="1" stop-color="#0bb1d3"/></linearGradient><linearGradient id="linear-gradient-2" x1="20.65" y1="20.74" x2="23.12" y2="20.74" xlink:href="#linear-gradient"/><linearGradient id="linear-gradient-3" x1="8.39" y1="27.09" x2="18.52" y2="27.09" xlink:href="#linear-gradient"/><linearGradient id="linear-gradient-4" x1="6.75" y1="32.06" x2="8.88" y2="32.06" xlink:href="#linear-gradient"/><linearGradient id="linear-gradient-5" x1="3.99" y1="26.01" x2="54.6" y2="26.01" xlink:href="#linear-gradient"/><linearGradient id="linear-gradient-6" x1="40.28" y1="13.15" x2="46.35" y2="13.15" xlink:href="#linear-gradient"/><linearGradient id="linear-gradient-7" x1="36.47" y1="13.16" x2="39.46" y2="13.16" xlink:href="#linear-gradient"/><linearGradient id="linear-gradient-8" x1="39.99" y1="4.36" x2="41.99" y2="4.36" xlink:href="#linear-gradient"/><linearGradient id="linear-gradient-9" x1="50.29" y1="8.8" x2="55.08" y2="8.8" xlink:href="#linear-gradient"/><linearGradient id="linear-gradient-10" x1="54.14" y1="20.49" x2="60.07" y2="20.49" xlink:href="#linear-gradient"/><linearGradient id="linear-gradient-11" x1="26.9" y1="8.8" x2="31.71" y2="8.8" xlink:href="#linear-gradient"/><linearGradient id="linear-gradient-12" x1="13.92" y1="46.54" x2="22.08" y2="46.54" xlink:href="#linear-gradient"/><linearGradient id="linear-gradient-13" x1="20.08" y1="44.77" x2="28.23" y2="44.77" xlink:href="#linear-gradient"/><linearGradient id="linear-gradient-14" x1="23.15" y1="50.38" x2="31.31" y2="50.38" xlink:href="#linear-gradient"/><linearGradient id="linear-gradient-15" x1="29.31" y1="48.61" x2="37.46" y2="48.61" xlink:href="#linear-gradient"/><linearGradient id="linear-gradient-16" x1="32.38" y1="54.23" x2="40.54" y2="54.23" xlink:href="#linear-gradient"/></defs><g id="_4.sun" data-name="4.sun"><path class="cls-1" d="M31.75,18.86A1,1,0,0,0,33,18.17c.76-2.8-10.4-1.77-9.14.85a1,1,0,0,0,1.34.45A9.1,9.1,0,0,1,31.75,18.86Z"/><path class="cls-2" d="M21.4,19.79c-.91.65-1.15,2.08.23,2.22.57,0,.8-.42,1.19-.82A1,1,0,0,0,21.4,19.79Z"/><path class="cls-3" d="M10.16,29a6,6,0,0,1,7-1.58,1,1,0,0,0,1.32-.5c.52-1.37-1.37-1.66-2.32-1.88a7.86,7.86,0,0,0-7.48,2.67A1,1,0,0,0,10.16,29Z"/><path class="cls-4" d="M8.12,30.34c-1.37-.23-1.34,1.52-1.37,2.46a1,1,0,0,0,2,0C8.72,31.94,9.33,30.63,8.12,30.34Z"/><path class="cls-5" d="M53.19,20.49c0-11.91-15.59-16.7-22.25-6.85A14.62,14.62,0,0,0,16,22C.81,21-.39,43,14.8,43.69a1,1,0,0,0,0-2c-11.75-.37-11.75-17.41,0-17.79A9,9,0,0,1,23,29.38a1,1,0,1,0,1.84-.77A10.94,10.94,0,0,0,18,22.39c4.43-9.06,18.1-9.06,22.53,0a11,11,0,0,0-6.86,6.22,1,1,0,0,0,1.85.77c3.76-8.87,17.05-6.23,17.1,3.42a8.9,8.9,0,0,1-8.89,8.89,1,1,0,0,0,0,2c9.19.13,14.31-11.17,8.26-18A12,12,0,0,0,53.19,20.49ZM42.54,22a14.56,14.56,0,0,0-9.44-7.94c7.39-8.89,21.54-.58,17.36,10.2A10.68,10.68,0,0,0,42.54,22Z"/><path class="cls-6" d="M46,13.17c-1-.89-5.27-3.09-5.68-.88a1,1,0,0,0,.94,1.06,6,6,0,0,1,3.48,1.38A1,1,0,0,0,46,13.17Z"/><path class="cls-7" d="M38.06,12c-.8.35-2.05,1-1.41,2s1.52.17,2.23-.18A1,1,0,0,0,38.06,12Z"/><path class="cls-8" d="M41,7.34a1,1,0,0,0,1-1V2.39a1,1,0,0,0-2,0v4A1,1,0,0,0,41,7.34Z"/><path class="cls-9" d="M51.29,11.19c.56.22,3.06-2.78,3.5-3.08a1,1,0,0,0-1.42-1.42l-2.79,2.8A1,1,0,0,0,51.29,11.19Z"/><path class="cls-10" d="M59.09,19.49h-4a1,1,0,0,0,0,2h4A1,1,0,0,0,59.09,19.49Z"/><path class="cls-11" d="M30,10.9c.91.93,2.35-.51,1.42-1.41l-2.8-2.8c-.9-.93-2.34.51-1.41,1.42Z"/><path class="cls-12" d="M21.46,38.23a1,1,0,0,0-1.31.54L14,53.54a1,1,0,0,0,1.85.77L22,39.54A1,1,0,0,0,21.46,38.23Z"/><path class="cls-13" d="M27.62,36.46a1,1,0,0,0-1.31.54L20.15,51.77a1,1,0,0,0,1.85.77l6.15-14.77A1,1,0,0,0,27.62,36.46Z"/><path class="cls-14" d="M30.69,42.08a1,1,0,0,0-1.31.53L23.23,57.38a1,1,0,1,0,1.85.77l6.15-14.77A1,1,0,0,0,30.69,42.08Z"/><path class="cls-15" d="M36.85,40.31a1,1,0,0,0-1.31.54L29.38,55.61a1,1,0,1,0,1.85.77l6.15-14.77A1,1,0,0,0,36.85,40.31Z"/><path class="cls-16" d="M39.92,45.92a1,1,0,0,0-1.3.54L32.46,61.23a1,1,0,0,0,1.85.77l6.15-14.77A1,1,0,0,0,39.92,45.92Z"/></g></svg>