<svg xmlns="http://www.w3.org/2000/svg" xmlns:xlink="http://www.w3.org/1999/xlink" viewBox="0 0 64 64"><defs><style>.cls-1{fill:url(#linear-gradient);}.cls-2{fill:url(#linear-gradient-2);}.cls-3{fill:url(#linear-gradient-3);}.cls-4{fill:url(#linear-gradient-4);}.cls-5{fill:url(#linear-gradient-5);}.cls-6{fill:url(#linear-gradient-6);}.cls-7{fill:url(#linear-gradient-7);}.cls-8{fill:url(#linear-gradient-8);}.cls-9{fill:url(#linear-gradient-9);}.cls-10{fill:url(#linear-gradient-10);}</style><linearGradient id="linear-gradient" x1="25.26" y1="15.32" x2="35.02" y2="15.32" gradientUnits="userSpaceOnUse"><stop offset="0" stop-color="#9f2fff"/><stop offset="1" stop-color="#0bb1d3"/></linearGradient><linearGradient id="linear-gradient-2" x1="21.95" y1="18.21" x2="24.45" y2="18.21" xlink:href="#linear-gradient"/><linearGradient id="linear-gradient-3" x1="8.86" y1="24.98" x2="19.53" y2="24.98" xlink:href="#linear-gradient"/><linearGradient id="linear-gradient-4" x1="7.11" y1="30.29" x2="9.28" y2="30.29" xlink:href="#linear-gradient"/><linearGradient id="linear-gradient-5" x1="4.16" y1="22.88" x2="59.94" y2="22.88" xlink:href="#linear-gradient"/><linearGradient id="linear-gradient-6" x1="16.92" y1="44.81" x2="25.08" y2="44.81" xlink:href="#linear-gradient"/><linearGradient id="linear-gradient-7" x1="23.08" y1="43.04" x2="31.23" y2="43.04" xlink:href="#linear-gradient"/><linearGradient id="linear-gradient-8" x1="26.15" y1="48.65" x2="34.31" y2="48.65" xlink:href="#linear-gradient"/><linearGradient id="linear-gradient-9" x1="32.31" y1="46.89" x2="40.46" y2="46.89" xlink:href="#linear-gradient"/><linearGradient id="linear-gradient-10" x1="35.38" y1="52.5" x2="43.54" y2="52.5" xlink:href="#linear-gradient"/></defs><g id="_20.moon" data-name="20.moon"><path class="cls-1" d="M33.75,16.13A1,1,0,0,0,35,15.44c.75-2.86-10.9-1.78-9.63.9a1,1,0,0,0,.89.55A10.93,10.93,0,0,1,33.75,16.13Z"/><path class="cls-2" d="M22.72,17.23c-.91.65-1.21,2.1.21,2.26.55,0,.87-.51,1.22-.86C25.07,17.72,23.62,16.29,22.72,17.23Z"/><path class="cls-3" d="M10.63,26.94a6.43,6.43,0,0,1,7.5-1.71A1,1,0,0,0,19,23.41,8.42,8.42,0,0,0,9.1,25.64a1,1,0,0,0,1.53,1.3Z"/><path class="cls-4" d="M8.49,28.52c-1.41-.22-1.34,1.59-1.38,2.56a1,1,0,0,0,1,1c1.28,0,.91-1.52,1.14-2.37A1,1,0,0,0,8.49,28.52Z"/><path class="cls-5" d="M59.87,17.48a1,1,0,0,0-1.1-1.35c-6.37,1.28-12-5.68-9.53-11.65a1,1,0,0,0-1.1-1.35,10.64,10.64,0,0,0-8.89,9.75C31.68,8,20.5,11.27,16.92,19.61.73,18.44-.43,42,15.63,42.64a1,1,0,0,0,0-2C3,40.24,3,21.91,15.63,21.51a9.63,9.63,0,0,1,8.83,5.89,1,1,0,1,0,1.85-.77A11.63,11.63,0,0,0,18.94,20c4.74-9.83,19.52-9.82,24.26,0a11.63,11.63,0,0,0-7.37,6.62,1,1,0,0,0,.55,1.31,1,1,0,0,0,1.3-.54c4-9.54,18.33-6.7,18.39,3.68a9.57,9.57,0,0,1-9.56,9.56,1,1,0,0,0,0,2c10.07.13,15.36-12.48,8.35-19.56A10.62,10.62,0,0,0,59.87,17.48ZM53.2,21.66a11.31,11.31,0,0,0-8-2.05,15.77,15.77,0,0,0-4-5.27,8.64,8.64,0,0,1,5.62-8.82A10.74,10.74,0,0,0,57.26,18.25,8.63,8.63,0,0,1,53.2,21.66Z"/><path class="cls-6" d="M24.46,36.5a1,1,0,0,0-1.31.54L17,51.81a1,1,0,1,0,1.85.77L25,37.81A1,1,0,0,0,24.46,36.5Z"/><path class="cls-7" d="M30.62,34.73a1,1,0,0,0-1.31.54L23.15,50a1,1,0,1,0,1.85.77L31.15,36A1,1,0,0,0,30.62,34.73Z"/><path class="cls-8" d="M33.69,40.35a1,1,0,0,0-1.31.53L26.23,55.65a1,1,0,0,0,1.85.77l6.15-14.77A1,1,0,0,0,33.69,40.35Z"/><path class="cls-9" d="M39.85,38.58a1,1,0,0,0-1.31.54L32.38,53.88a1,1,0,1,0,1.85.77l6.15-14.76A1,1,0,0,0,39.85,38.58Z"/><path class="cls-10" d="M42.92,44.19a1,1,0,0,0-1.3.54L35.46,59.5a1,1,0,1,0,1.85.77L43.46,45.5A1,1,0,0,0,42.92,44.19Z"/></g></svg>