<svg xmlns="http://www.w3.org/2000/svg" xmlns:xlink="http://www.w3.org/1999/xlink" viewBox="0 0 64 64"><defs><style>.cls-1{fill:url(#linear-gradient);}.cls-2{fill:url(#linear-gradient-2);}.cls-3{fill:url(#linear-gradient-3);}.cls-4{fill:url(#linear-gradient-4);}.cls-5{fill:url(#linear-gradient-5);}.cls-6{fill:url(#linear-gradient-6);}.cls-7{fill:url(#linear-gradient-7);}</style><linearGradient id="linear-gradient" x1="26.04" y1="9.04" x2="36.05" y2="9.04" gradientUnits="userSpaceOnUse"><stop offset="0" stop-color="#9f2fff"/><stop offset="1" stop-color="#0bb1d3"/></linearGradient><linearGradient id="linear-gradient-2" x1="8.98" y1="19.05" x2="19.99" y2="19.05" xlink:href="#linear-gradient"/><linearGradient id="linear-gradient-3" x1="7.16" y1="24.56" x2="9.31" y2="24.56" xlink:href="#linear-gradient"/><linearGradient id="linear-gradient-4" x1="4.09" y1="20.77" x2="59.89" y2="20.77" xlink:href="#linear-gradient"/><linearGradient id="linear-gradient-5" x1="17.94" y1="50.34" x2="25.97" y2="50.34" xlink:href="#linear-gradient"/><linearGradient id="linear-gradient-6" x1="38.01" y1="50.34" x2="46.05" y2="50.34" xlink:href="#linear-gradient"/><linearGradient id="linear-gradient-7" x1="27.98" y1="50.34" x2="36.01" y2="50.34" xlink:href="#linear-gradient"/></defs><g id="_48.cloud" data-name="48.cloud"><path class="cls-1" d="M35.34,7.89c-1.59-.83-10.13-.55-9.24,2.17a1,1,0,0,0,1.34.44,10.26,10.26,0,0,1,7.36-.69A1,1,0,0,0,35.34,7.89Z"/><path class="cls-2" d="M19.4,17.45a8.71,8.71,0,0,0-10.18,2.3,1,1,0,1,0,1.53,1.3,6.66,6.66,0,0,1,5.09-2.36,6.84,6.84,0,0,1,2.74.58,1,1,0,0,0,.82-1.82Z"/><path class="cls-3" d="M8.55,22.76c-1.44-.22-1.34,1.64-1.39,2.61a1,1,0,0,0,2,0C9.1,24.47,9.82,23.07,8.55,22.76Z"/><path class="cls-4" d="M46.66,13.51c-5.52-12.42-23.79-12.42-29.32,0C.64,12.28-.77,36.59,16,37.34H48C64.68,36.66,63.42,12.29,46.66,13.51ZM48,35.34H16a10,10,0,0,1-10-10c.07-10.81,15-13.77,19.17-3.83A1,1,0,1,0,27,20.77a12,12,0,0,0-7.67-6.86c4.91-10.29,20.39-10.28,25.3,0A12,12,0,0,0,37,20.77a1,1,0,0,0,1.85.77A10,10,0,0,1,48,15.41C61.2,15.82,61.2,34.92,48,35.34Z"/><path class="cls-5" d="M25,48.84H20.76l4.06-6.5a1,1,0,0,0-1.7-1.06l-5,8A1,1,0,0,0,19,50.84H23.1l-5,7.48a1,1,0,0,0,1.66,1.11l6-9A1,1,0,0,0,25,48.84Z"/><path class="cls-6" d="M45.05,48.84H40.83l4.06-6.5a1,1,0,0,0-1.69-1.06l-5,8A1,1,0,0,0,39,50.84h4.15l-5,7.48a1,1,0,0,0,1.67,1.11l6-9A1,1,0,0,0,45.05,48.84Z"/><path class="cls-7" d="M35,48.84H30.79l4.07-6.5a1,1,0,0,0-1.7-1.06l-5,8A1,1,0,0,0,29,50.84h4.15l-5,7.48a1,1,0,0,0,1.66,1.11l6-9A1,1,0,0,0,35,48.84Z"/></g></svg>