<svg xmlns="http://www.w3.org/2000/svg" xmlns:xlink="http://www.w3.org/1999/xlink" viewBox="0 0 64 64"><defs><style>.cls-1{fill:url(#linear-gradient);}.cls-2{fill:url(#linear-gradient-2);}.cls-3{fill:url(#linear-gradient-3);}.cls-4{fill:url(#linear-gradient-4);}.cls-5{fill:url(#linear-gradient-5);}.cls-6{fill:url(#linear-gradient-6);}.cls-7{fill:url(#linear-gradient-7);}.cls-8{fill:url(#linear-gradient-8);}.cls-9{fill:url(#linear-gradient-9);}.cls-10{fill:url(#linear-gradient-10);}.cls-11{fill:url(#linear-gradient-11);}.cls-12{fill:url(#linear-gradient-12);}.cls-13{fill:url(#linear-gradient-13);}.cls-14{fill:url(#linear-gradient-14);}.cls-15{fill:url(#linear-gradient-15);}.cls-16{fill:url(#linear-gradient-16);}.cls-17{fill:url(#linear-gradient-17);}.cls-18{fill:url(#linear-gradient-18);}.cls-19{fill:url(#linear-gradient-19);}.cls-20{fill:url(#linear-gradient-20);}.cls-21{fill:url(#linear-gradient-21);}.cls-22{fill:url(#linear-gradient-22);}.cls-23{fill:url(#linear-gradient-23);}.cls-24{fill:url(#linear-gradient-24);}.cls-25{fill:url(#linear-gradient-25);}.cls-26{fill:url(#linear-gradient-26);}.cls-27{fill:url(#linear-gradient-27);}.cls-28{fill:url(#linear-gradient-28);}.cls-29{fill:url(#linear-gradient-29);}.cls-30{fill:url(#linear-gradient-30);}.cls-31{fill:url(#linear-gradient-31);}.cls-32{fill:url(#linear-gradient-32);}.cls-33{fill:url(#linear-gradient-33);}.cls-34{fill:url(#linear-gradient-34);}.cls-35{fill:url(#linear-gradient-35);}</style><linearGradient id="linear-gradient" x1="20.99" y1="41.77" x2="23.01" y2="41.77" gradientUnits="userSpaceOnUse"><stop offset="0" stop-color="#9f2fff"/><stop offset="1" stop-color="#0bb1d3"/></linearGradient><linearGradient id="linear-gradient-2" x1="20.99" y1="44.77" x2="23.01" y2="44.77" xlink:href="#linear-gradient"/><linearGradient id="linear-gradient-3" x1="21.01" y1="47.78" x2="22.98" y2="47.78" xlink:href="#linear-gradient"/><linearGradient id="linear-gradient-4" x1="20.99" y1="50.78" x2="23.01" y2="50.78" xlink:href="#linear-gradient"/><linearGradient id="linear-gradient-5" x1="21.01" y1="53.78" x2="22.98" y2="53.78" xlink:href="#linear-gradient"/><linearGradient id="linear-gradient-6" x1="21.01" y1="56.78" x2="22.99" y2="56.78" xlink:href="#linear-gradient"/><linearGradient id="linear-gradient-7" x1="31" y1="41.77" x2="33.01" y2="41.77" xlink:href="#linear-gradient"/><linearGradient id="linear-gradient-8" x1="30.99" y1="44.78" x2="33.01" y2="44.78" xlink:href="#linear-gradient"/><linearGradient id="linear-gradient-9" x1="31" y1="47.78" x2="32.98" y2="47.78" xlink:href="#linear-gradient"/><linearGradient id="linear-gradient-10" x1="31.02" y1="50.77" x2="32.99" y2="50.77" xlink:href="#linear-gradient"/><linearGradient id="linear-gradient-11" x1="30.99" y1="53.78" x2="33.01" y2="53.78" xlink:href="#linear-gradient"/><linearGradient id="linear-gradient-12" x1="31.01" y1="56.78" x2="32.99" y2="56.78" xlink:href="#linear-gradient"/><linearGradient id="linear-gradient-13" x1="41.01" y1="41.77" x2="43" y2="41.77" xlink:href="#linear-gradient"/><linearGradient id="linear-gradient-14" x1="40.99" y1="44.77" x2="43.01" y2="44.77" xlink:href="#linear-gradient"/><linearGradient id="linear-gradient-15" x1="40.99" y1="47.78" x2="43.01" y2="47.78" xlink:href="#linear-gradient"/><linearGradient id="linear-gradient-16" x1="41.01" y1="50.77" x2="42.98" y2="50.77" xlink:href="#linear-gradient"/><linearGradient id="linear-gradient-17" x1="41" y1="53.78" x2="43" y2="53.78" xlink:href="#linear-gradient"/><linearGradient id="linear-gradient-18" x1="40.99" y1="56.78" x2="43.01" y2="56.78" xlink:href="#linear-gradient"/><linearGradient id="linear-gradient-19" x1="25.99" y1="41.77" x2="28.01" y2="41.77" xlink:href="#linear-gradient"/><linearGradient id="linear-gradient-20" x1="25.99" y1="44.78" x2="28.01" y2="44.78" xlink:href="#linear-gradient"/><linearGradient id="linear-gradient-21" x1="25.99" y1="47.78" x2="28.01" y2="47.78" xlink:href="#linear-gradient"/><linearGradient id="linear-gradient-22" x1="26.01" y1="50.77" x2="27.99" y2="50.77" xlink:href="#linear-gradient"/><linearGradient id="linear-gradient-23" x1="26.01" y1="53.78" x2="27.99" y2="53.78" xlink:href="#linear-gradient"/><linearGradient id="linear-gradient-24" x1="26.01" y1="56.78" x2="27.99" y2="56.78" xlink:href="#linear-gradient"/><linearGradient id="linear-gradient-25" x1="35.99" y1="41.77" x2="38.01" y2="41.77" xlink:href="#linear-gradient"/><linearGradient id="linear-gradient-26" x1="36" y1="44.77" x2="38.01" y2="44.77" xlink:href="#linear-gradient"/><linearGradient id="linear-gradient-27" x1="35.99" y1="47.77" x2="38.01" y2="47.77" xlink:href="#linear-gradient"/><linearGradient id="linear-gradient-28" x1="36" y1="50.77" x2="38.01" y2="50.77" xlink:href="#linear-gradient"/><linearGradient id="linear-gradient-29" x1="36" y1="53.77" x2="38.01" y2="53.77" xlink:href="#linear-gradient"/><linearGradient id="linear-gradient-30" x1="35.99" y1="56.78" x2="38.01" y2="56.78" xlink:href="#linear-gradient"/><linearGradient id="linear-gradient-31" x1="26.06" y1="9.13" x2="36.04" y2="9.13" xlink:href="#linear-gradient"/><linearGradient id="linear-gradient-32" x1="22.58" y1="12.08" x2="25.11" y2="12.08" xlink:href="#linear-gradient"/><linearGradient id="linear-gradient-33" x1="9.07" y1="19.1" x2="20.03" y2="19.1" xlink:href="#linear-gradient"/><linearGradient id="linear-gradient-34" x1="7.25" y1="24.58" x2="9.42" y2="24.58" xlink:href="#linear-gradient"/><linearGradient id="linear-gradient-35" x1="4.19" y1="20.81" x2="59.79" y2="20.81" xlink:href="#linear-gradient"/></defs><g id="_53.cloud" data-name="53.cloud"><path class="cls-1" d="M22.71,41.07c-.91-.93-2.35.5-1.42,1.41A1,1,0,0,0,22.71,41.07Z"/><path class="cls-2" d="M22.71,44.07c-.9-.94-2.35.51-1.42,1.41S23.64,45,22.71,44.07Z"/><path class="cls-3" d="M22.38,46.85a1,1,0,0,0-.76,1.85A1,1,0,0,0,22.38,46.85Z"/><path class="cls-4" d="M22.71,50.07a1,1,0,0,0-1.42,1.41C22.19,52.4,23.63,51,22.71,50.07Z"/><path class="cls-5" d="M21.8,52.79a2.28,2.28,0,0,0-.36.15,1,1,0,1,0,.36-.15Z"/><path class="cls-6" d="M22.38,55.85a1,1,0,0,0-.76,1.85A1,1,0,0,0,22.38,55.85Z"/><path class="cls-7" d="M32.71,41.07l-.15-.13a1,1,0,1,0,.15.13Z"/><path class="cls-8" d="M32.71,44.07c-.9-.92-2.35.5-1.42,1.41S33.63,45,32.71,44.07Z"/><path class="cls-9" d="M32.38,46.85a1,1,0,0,0-1.21.37,1,1,0,1,0,1.21-.37Z"/><path class="cls-10" d="M32.38,49.85a1,1,0,0,0-.76,1.85A1,1,0,0,0,32.38,49.85Z"/><path class="cls-11" d="M32.71,53.07c-.91-.91-2.34.5-1.42,1.41S33.63,54,32.71,53.07Z"/><path class="cls-12" d="M32.38,55.85a1,1,0,0,0-.76,1.85A1,1,0,0,0,32.38,55.85Z"/><path class="cls-13" d="M42.71,41.07a1,1,0,1,0-.71,1.7A1,1,0,0,0,42.71,41.07Z"/><path class="cls-14" d="M42.71,44.07c-.9-.94-2.34.5-1.42,1.41S43.63,45,42.71,44.07Z"/><path class="cls-15" d="M41.29,47.07a.61.61,0,0,0-.12.15,1,1,0,0,0,1.54,1.26C43.64,47.57,42.19,46.15,41.29,47.07Z"/><path class="cls-16" d="M41.8,49.79a1.94,1.94,0,0,0-.36.15,1,1,0,1,0,.36-.15Z"/><path class="cls-17" d="M42.56,52.94l-.18-.09a1,1,0,1,0,.18.09Z"/><path class="cls-18" d="M41.29,56.07c-.93.91.51,2.34,1.42,1.41S42.2,55.16,41.29,56.07Z"/><path class="cls-19" d="M27.71,41.07c-.9-.94-2.35.51-1.42,1.41A1,1,0,0,0,27.71,41.07Z"/><path class="cls-20" d="M27.71,44.07a1,1,0,0,0-1.42,1.41C27.19,46.41,28.63,45,27.71,44.07Z"/><path class="cls-21" d="M27.92,47.39a1,1,0,0,0-1.84.77A1,1,0,0,0,27.92,47.39Z"/><path class="cls-22" d="M27.56,49.94a2.28,2.28,0,0,0-.36-.15,1.34,1.34,0,0,0-.4,0,2.28,2.28,0,0,0-.36.15,1,1,0,1,0,1.12,0Z"/><path class="cls-23" d="M27.71,53.07a1,1,0,0,0-1.27-.13,1,1,0,1,0,1.27.13Z"/><path class="cls-24" d="M27.38,55.85a1,1,0,0,0-.76,1.85A1,1,0,0,0,27.38,55.85Z"/><path class="cls-25" d="M37.71,41.07c-.91-.93-2.35.51-1.42,1.41A1,1,0,0,0,37.71,41.07Z"/><path class="cls-26" d="M37.71,44.07a1,1,0,0,0-.33-.22,1,1,0,0,0-1.09,1.63C37.19,46.41,38.63,45,37.71,44.07Z"/><path class="cls-27" d="M37.92,47.39a.56.56,0,0,0-.09-.17,1,1,0,1,0,.09.17Z"/><path class="cls-28" d="M37.71,50.07a1,1,0,0,0-.33-.22,1,1,0,0,0-1.09,1.63C37.19,52.41,38.63,51,37.71,50.07Z"/><path class="cls-29" d="M37.71,53.07a1,1,0,0,0-.33-.22,1,1,0,0,0-1.09,1.63C37.19,55.42,38.63,54,37.71,53.07Z"/><path class="cls-30" d="M36.29,56.07c-.93.91.52,2.34,1.42,1.41S37.2,55.16,36.29,56.07Z"/><path class="cls-31" d="M35.33,8c-1.59-.83-10.1-.55-9.21,2.16a1,1,0,0,0,1.34.44,10.22,10.22,0,0,1,7.33-.68A1,1,0,0,0,35.33,8Z"/><path class="cls-32" d="M23.4,11.09c-.59.51-1.24,1.38-.48,2a1,1,0,0,0,1.41-.1l.48-.52C25.74,11.61,24.3,10.16,23.4,11.09Z"/><path class="cls-33" d="M19.45,17.5A8.69,8.69,0,0,0,9.3,19.8a1,1,0,1,0,1.53,1.29,6.69,6.69,0,0,1,7.8-1.77A1,1,0,0,0,19.45,17.5Z"/><path class="cls-34" d="M8.64,22.79C7.2,22.57,7.3,24.43,7.25,25.4a1,1,0,0,0,1,1c1.31,0,.9-1.56,1.15-2.42A1,1,0,0,0,8.64,22.79Z"/><path class="cls-35" d="M46.61,13.57C41.1,1.2,22.91,1.2,17.39,13.56c-16.63-1.2-18,23-1.36,23.76H48C64.55,36.66,63.33,12.34,46.61,13.57ZM48,35.32H16A9.94,9.94,0,0,1,6.1,25.4C6.17,14.63,21,11.68,25.19,21.58A1,1,0,1,0,27,20.81,12,12,0,0,0,19.41,14C24.3,3.74,39.71,3.74,44.6,14A12,12,0,0,0,37,20.81a1,1,0,0,0,1.85.77A10,10,0,0,1,48,15.47C61.08,15.89,61.09,34.91,48,35.32Z"/></g></svg>